<svg width="400" height="250" viewBox="15 -30 370 250" xmlns="http://www.w3.org/2000/svg"><path fill-rule="evenodd" clip-rule="evenodd" fill="#F6D2A2" stroke="#000" stroke-width="1.0499999999999998" stroke-linecap="round" d="M63.722 100.173c.267 5.512 5.775 2.962 8.269 1.238 2.368-1.636 3.06-.276 3.268-3.505.136-2.122.38-4.245.26-6.376-3.58-.324-7.475.528-10.41 2.661-1.512 1.099-4.347 4.605-1.387 5.982"/><path fill-rule="evenodd" clip-rule="evenodd" fill="#C6B198" stroke="#000" stroke-width="1.0499999999999998" stroke-linecap="round" d="M63.722 100.173c.801-.299 1.65-.51 2.195-1.235"/><path fill-rule="evenodd" clip-rule="evenodd" fill="#6AD7E5" stroke="#000" stroke-width="1.0499999999999998" stroke-linecap="round" d="M76.449 34.499c-21.104-5.935-5.411-32.783 11.536-21.74l-11.536 21.74zM170.213 10.744c16.705-11.733 31.8 14.74 12.386 21.4l-12.386-21.4z"/><path fill-rule="evenodd" clip-rule="evenodd" fill="#F6D2A2" stroke="#000" stroke-width="1.0499999999999998" stroke-linecap="round" d="M173.806 168.02c4.243 2.625 11.999 10.564 5.634 14.413-6.116 5.6-9.539-6.146-14.907-7.774 2.312-3.14 5.242-6.002 9.273-6.639z"/><path clip-rule="evenodd" fill="none" stroke="#000" stroke-width="1.0499999999999998" stroke-linecap="round" d="M179.44 182.433c-.944-1.877-1.26-4.067-2.836-5.579"/><path fill-rule="evenodd" clip-rule="evenodd" fill="#F6D2A2" stroke="#000" stroke-width="1.0499999999999998" stroke-linecap="round" d="M98.003 176.991c-4.98.77-7.784 5.264-11.935 7.546-3.913 2.332-5.41-.747-5.762-1.372-.613-.28-.561.26-1.508-.693-3.627-5.724 3.78-9.908 7.635-12.751 5.371-1.086 8.737 3.57 11.57 7.27z"/><path clip-rule="evenodd" fill="none" stroke="#000" stroke-width="1.0499999999999998" stroke-linecap="round" d="M80.307 183.164c.19-2.181 1.919-3.642 2.743-5.487"/><path fill-rule="evenodd" clip-rule="evenodd" d="M77.33 27.083c-2.785-1.472-4.827-3.473-3.124-6.693 1.577-2.981 4.506-2.658 7.29-1.185l-4.166 7.878zM178.2 24.283c2.785-1.472 4.827-3.473 3.124-6.693-1.576-2.981-4.506-2.658-7.29-1.185l4.167 7.878z"/><path fill-rule="evenodd" clip-rule="evenodd" fill="#F6D2A2" stroke="#000" stroke-width="1.0499999999999998" stroke-linecap="round" d="M197.366 99.473c-.267 5.512-5.774 2.962-8.269 1.238-2.368-1.636-3.06-.276-3.268-3.505-.136-2.122-.38-4.245-.26-6.376 3.58-.324 7.475.528 10.41 2.661 1.512 1.099 4.347 4.605 1.387 5.982"/><path fill-rule="evenodd" clip-rule="evenodd" fill="#C6B198" stroke="#000" stroke-width="1.0499999999999998" stroke-linecap="round" d="M197.366 99.473c-.801-.299-1.65-.51-2.195-1.235"/><path fill-rule="evenodd" clip-rule="evenodd" fill="#6AD7E5" stroke="#000" stroke-width="1.0499999999999998" stroke-linecap="round" d="M128.43-.407c21.127 0 40.933 3.022 51.257 23.32 9.268 22.753 5.972 47.287 7.385 71.333 1.214 20.647 3.905 44.5-5.673 63.634-10.077 20.13-35.256 25.194-56 24.452-16.294-.583-35.978-5.899-45.174-20.786-10.79-17.465-5.681-43.435-4.898-62.868.928-23.02-6.235-46.11 1.327-68.635C84.5 6.676 105.658 1.395 128.43-.407"/><path fill-rule="evenodd" clip-rule="evenodd" fill="#FFF" stroke="#000" stroke-width="1.0177999999999998" stroke-linecap="round" d="M132.16 27.956c3.792 22.051 39.837 16.22 34.66-6.019-4.643-19.943-35.922-14.423-34.66 6.019"/><path fill-rule="evenodd" clip-rule="evenodd" fill="#FFF" stroke="#000" stroke-width=".98735" stroke-linecap="round" d="M89.086 31.522c4.917 19.198 35.652 14.283 34.494-4.974-1.388-23.063-39.194-18.613-34.494 4.974"/><path fill-rule="evenodd" clip-rule="evenodd" fill="#FFF" stroke="#000" stroke-width="1.0499999999999998" stroke-linecap="round" d="M136.508 54.417c.016 2.867.651 6.085.11 9.135-.733 1.383-2.168 1.53-3.406 2.088a5.01 5.01 0 0 1-3.837-2.993c-.44-3.48.164-6.851.275-10.334l6.858 2.104z"/><g fill-rule="evenodd" clip-rule="evenodd" transform="matrix(.35 0 0 .35 60 -5)"><ellipse cx="107.324" cy="95.404" rx="14.829" ry="16.062"/><ellipse fill="#FFF" cx="114.069" cy="99.029" rx="3.496" ry="4.082"/></g><g fill-rule="evenodd" clip-rule="evenodd" transform="matrix(.35 0 0 .35 60 -5)"><ellipse cx="231.571" cy="91.404" rx="14.582" ry="16.062"/><ellipse fill="#FFF" cx="238.204" cy="95.029" rx="3.438" ry="4.082"/></g><path fill-rule="evenodd" clip-rule="evenodd" fill="#FFF" stroke="#000" stroke-width="1.0499999999999998" stroke-linecap="round" d="M121.676 54.104c-2.265 5.488 1.263 16.463 7.407 8.368-.44-3.48.164-6.851.275-10.334l-7.682 1.966z"/><g fill-rule="evenodd" clip-rule="evenodd"><path fill="#F6D2A2" stroke="#231F20" stroke-width="1.0499999999999998" stroke-linecap="round" d="M122.45 43.536c-4.22.36-7.67 5.378-5.475 9.348 2.906 5.258 9.392-.465 13.432.07 4.65.096 8.46 4.917 12.194.872 4.154-4.499-1.788-8.88-6.432-10.84l-13.718.55z"/><path d="M121.92 43.316c-.313-7.312 13.628-8.226 15.274-2.106 1.642 6.106-14.588 7.524-15.274 2.106-.548-4.327 0 0 0 0z"/></g><g><path d="M220 65h40l-5-6m5 6-5 6" stroke="#00ADD8" stroke-width="4" fill="none" stroke-linecap="round" stroke-linejoin="round"/></g><g transform="translate(310 65)"><path fill="none" stroke="#E535AB" stroke-width="3" stroke-linejoin="round" d="m0-35 30 17.5v35L0 35l-30-17.5v-35z"/><path stroke="#E535AB" stroke-width="1.5" d="M0-35v70M-30-17.5l60 35M-30 17.5l60-35"/><circle r="5" fill="#E535AB"/><circle cy="-35" r="4" fill="#E535AB"/><circle cx="30" cy="-17.5" r="4" fill="#E535AB"/><circle cx="30" cy="17.5" r="4" fill="#E535AB"/><circle cy="35" r="4" fill="#E535AB"/><circle cx="-30" cy="17.5" r="4" fill="#E535AB"/><circle cx="-30" cy="-17.5" r="4" fill="#E535AB"/></g><text x="200" y="170" font-family="'Courier New', monospace" font-size="24" font-weight="bold" fill="#E535AB" text-anchor="middle">
    gqlschemagen
  </text></svg>